<svg width="24" height="24" viewBox="0 0 24 24" fill="none" xmlns="http://www.w3.org/2000/svg">
<path fill-rule="evenodd" clip-rule="evenodd" d="M12.5284 20.6424L20.4931 12.5874C22.7074 10.2979 22.7074 6.75934 20.4931 4.46982C19.4427 3.38747 17.9708 2.77163 16.4287 2.76935C15.0236 2.77091 13.6764 3.28126 12.6525 4.18965C12.5518 4.279 12.4542 4.37219 12.36 4.46912L12.0015 4.83232L11.6429 4.46912C11.5465 4.36962 11.447 4.27446 11.3448 4.18363C9.23352 2.30842 5.9381 2.28407 3.79519 4.1928C3.69564 4.28151 3.59948 4.37364 3.50695 4.46912C1.29252 6.75889 1.29252 10.2976 3.50695 12.5874L11.4746 20.6424C11.7502 20.9213 12.2096 20.9333 12.5006 20.669C12.5101 20.6604 12.5194 20.6515 12.5284 20.6424ZM4.16703 11.9421L12.0015 19.8624L19.833 11.9421C21.6976 10.0106 21.6967 7.04277 19.8302 5.11223C18.958 4.21367 17.7271 3.69466 16.4286 3.69242C15.1284 3.69418 13.8958 4.21322 13.022 5.11243L13.0169 5.11763L12.0015 6.14627L10.9801 5.11158C9.23868 3.31487 6.2885 3.20826 4.40929 4.88196M4.16703 11.9421C2.30223 10.0102 2.30327 7.04195 4.17014 5.11119C4.24667 5.03225 4.32653 4.95572 4.40929 4.88196" fill="#444444"/>
</svg>
